REM DIRINDEX 1\2,1\3
REM DIRNAME folder01,folder02,folder03
TITLE ""
FILE "Disk2Track25.mp3" MP3
  TRACK 01 AUDIO
    TITLE "2:cjc052_0702"
    INDEX 01 00:00:00
  TRACK 02 AUDIO
    TITLE "2:cjc052_0703"
    INDEX 01 00:03:55
  TRACK 03 AUDIO
    TITLE "2:cjc052_0704"
    INDEX 01 00:15:52
  TRACK 04 AUDIO
    TITLE "2:cjc052_0705"
    INDEX 01 00:28:06
  TRACK 05 AUDIO
    TITLE "2:cjc052_0706"
    INDEX 01 00:42:31
  TRACK 06 AUDIO
    TITLE "0:"
    INDEX 01 00:51:73
